<?xml version="1.0" encoding="UTF-8" standalone="no"?><!DOCTYPE svg PUBLIC "-//W3C//DTD SVG 1.1//EN" "http://www.w3.org/Graphics/SVG/1.1/DTD/svg11.dtd"><svg width="100%" height="100%" viewBox="0 0 331 63" version="1.1" xmlns="http://www.w3.org/2000/svg" xmlns:xlink="http://www.w3.org/1999/xlink" xml:space="preserve" xmlns:serif="http://www.serif.com/" style="fill-rule:evenodd;clip-rule:evenodd;stroke-linejoin:round;stroke-miterlimit:2;"><path d="M48.007,37.506c-0.917,0 -1.823,-0.186 -2.643,-0.564c-1.962,-0.902 -3.326,-2.834 -3.47,-4.926c-0.144,-2.089 0.792,-4.856 3.908,-5.79c1.766,-0.529 3.577,-0.479 5.1,0.139c1.744,0.71 3.078,2.203 3.48,3.9c0.566,2.372 -0.711,5.05 -3.033,6.367c-1.023,0.579 -2.186,0.874 -3.336,0.874l-0.005,0Zm0.221,-9.961c-0.633,0 -1.292,0.099 -1.948,0.296c-2.164,0.648 -2.812,2.593 -2.71,4.064c0.102,1.463 1.103,2.874 2.494,3.513c1.369,0.628 3.073,0.534 4.449,-0.246c1.659,-0.942 2.616,-2.882 2.226,-4.514c-0.281,-1.177 -1.23,-2.223 -2.479,-2.733c-0.621,-0.253 -1.314,-0.38 -2.035,-0.38l0.002,0Z" style="fill:#aa5e1b;fill-rule:nonzero;"/><path d="M47.992,22.462c-0.042,0 -0.084,0 -0.129,-0.003c-1.264,-0.052 -2.479,-0.894 -3.326,-2.308c-0.288,-0.479 -0.517,-0.974 -0.74,-1.453c-0.253,-0.547 -0.492,-1.063 -0.8,-1.523c-0.554,-0.83 -1.374,-1.384 -2.092,-1.413c-0.363,-0.015 -0.676,-0.261 -0.775,-0.611c-0.099,-0.35 0.037,-0.723 0.34,-0.927c1.019,-0.686 2.343,-0.902 3.637,-0.599c0.474,0.112 0.922,0.288 1.327,0.522c0.189,-1.284 0.797,-2.504 1.754,-3.406c0.179,-0.171 0.427,-0.253 0.673,-0.224c0.246,0.027 0.467,0.161 0.606,0.368c0.604,0.904 1.048,1.982 1.349,3.269c1.565,-1.056 3.729,-1.235 5.391,-0.283c0.31,0.179 0.474,0.534 0.41,0.884c-0.067,0.353 -0.348,0.623 -0.7,0.678c-1.009,0.152 -1.709,1.245 -1.963,1.707c-0.224,0.407 -0.41,0.837 -0.609,1.294c-0.268,0.619 -0.547,1.259 -0.934,1.866c-0.867,1.361 -2.134,2.161 -3.411,2.161l-0.007,0Zm-4.476,-7.239c0.353,0.321 0.651,0.676 0.882,1.018c0.38,0.566 0.658,1.168 0.927,1.749c0.214,0.46 0.415,0.894 0.656,1.294c0.544,0.907 1.277,1.466 1.958,1.493c0.825,0.035 1.61,-0.691 2.049,-1.381c0.316,-0.494 0.556,-1.048 0.81,-1.635c0.206,-0.472 0.417,-0.959 0.678,-1.433c0.298,-0.542 0.639,-1.006 1.016,-1.386c-0.999,0.082 -1.972,0.576 -2.536,1.389c-0.199,0.286 -0.551,0.42 -0.892,0.34c-0.338,-0.082 -0.591,-0.365 -0.636,-0.71c-0.154,-1.195 -0.42,-2.228 -0.795,-3.09c-0.537,0.934 -0.723,2.084 -0.457,3.123c0.104,0.41 -0.109,0.832 -0.502,0.989c-0.392,0.157 -0.837,0 -1.046,-0.368c-0.373,-0.661 -1.068,-1.155 -1.908,-1.351c-0.067,-0.015 -0.137,-0.03 -0.204,-0.042l0,0.002Z" style="fill:#aa5e1b;fill-rule:nonzero;"/><path d="M47.764,52.826c-0.214,0 -0.42,-0.082 -0.579,-0.229c-0.954,-0.902 -1.565,-2.121 -1.754,-3.406c-0.405,0.231 -0.852,0.41 -1.327,0.522c-1.292,0.306 -2.618,0.087 -3.637,-0.599c-0.303,-0.204 -0.44,-0.576 -0.34,-0.926c0.099,-0.35 0.412,-0.596 0.775,-0.611c0.718,-0.03 1.538,-0.584 2.092,-1.413c0.308,-0.46 0.547,-0.976 0.8,-1.523c0.224,-0.479 0.452,-0.974 0.74,-1.453c0.849,-1.413 2.062,-2.256 3.326,-2.308c1.329,-0.065 2.646,0.753 3.54,2.159c0.385,0.606 0.663,1.247 0.934,1.866c0.199,0.457 0.385,0.889 0.609,1.294c0.253,0.462 0.954,1.555 1.962,1.707c0.355,0.055 0.636,0.325 0.7,0.678c0.067,0.353 -0.099,0.708 -0.41,0.884c-1.659,0.951 -3.826,0.773 -5.391,-0.283c-0.301,1.287 -0.745,2.365 -1.349,3.269c-0.137,0.206 -0.358,0.34 -0.606,0.37c-0.032,0.002 -0.062,0.005 -0.094,0.005l0.008,-0.002Zm-1.404,-6.531c0.104,0 0.211,0.02 0.313,0.06c0.393,0.157 0.606,0.581 0.502,0.989c-0.266,1.038 -0.082,2.189 0.457,3.123c0.375,-0.862 0.641,-1.895 0.795,-3.09c0.045,-0.345 0.298,-0.628 0.636,-0.71c0.34,-0.084 0.693,0.052 0.892,0.34c0.561,0.812 1.538,1.307 2.536,1.389c-0.375,-0.38 -0.718,-0.847 -1.016,-1.386c-0.261,-0.475 -0.472,-0.964 -0.678,-1.433c-0.253,-0.586 -0.494,-1.138 -0.81,-1.634c-0.44,-0.691 -1.225,-1.428 -2.05,-1.381c-0.681,0.03 -1.411,0.586 -1.957,1.493c-0.241,0.402 -0.442,0.835 -0.656,1.294c-0.268,0.581 -0.549,1.18 -0.927,1.749c-0.229,0.345 -0.527,0.698 -0.882,1.018c0.067,-0.012 0.137,-0.025 0.204,-0.042c0.837,-0.199 1.533,-0.691 1.908,-1.351c0.154,-0.271 0.437,-0.427 0.733,-0.427l0,0.002Z" style="fill:#aa5e1b;fill-rule:nonzero;"/><path d="M5.424,38.182c-0.527,0 -0.991,-0.221 -1.264,-0.636c-0.35,-0.534 -0.216,-1.148 -0.166,-1.379l0.03,-0.132c0.132,-0.599 0.273,-1.25 0.586,-1.977c-1.62,-0.238 -3.195,-0.934 -4.327,-1.94c-0.169,-0.151 -0.271,-0.363 -0.281,-0.589c-0.01,-0.226 0.07,-0.447 0.224,-0.614c1.073,-1.153 2.569,-1.853 4.166,-2.002c-0.33,-0.623 -0.524,-1.319 -0.554,-2.032c-0.037,-0.892 0.343,-1.329 0.666,-1.538c0.308,-0.199 0.84,-0.358 1.615,-0.005c1.53,0.696 2.71,2.206 3.16,4.034c0.358,1.461 0.278,3.115 -0.238,4.919c-0.554,1.94 -1.495,3.192 -2.795,3.721c-0.278,0.114 -0.559,0.169 -0.822,0.169l0.002,0Zm0.551,-5.716c0.308,0 0.589,0.166 0.738,0.437c0.152,0.273 0.137,0.609 -0.037,0.869c-0.648,0.976 -0.822,1.776 -1.006,2.621l-0.01,0.04c0.961,-0.422 1.488,-1.644 1.764,-2.603c0.435,-1.518 0.509,-2.884 0.221,-4.054c-0.315,-1.289 -1.103,-2.348 -2.119,-2.854c0.07,0.874 0.542,1.732 1.245,2.253c0.315,0.236 0.427,0.658 0.266,1.018c-0.161,0.36 -0.547,0.564 -0.937,0.48c-1.399,-0.286 -2.827,0.005 -3.917,0.76c1.086,0.666 2.479,1.058 3.776,1.031l0.015,0l0.002,0.002Z" style="fill:#aa5e1b;fill-opacity:0.3;fill-rule:nonzero;"/><path d="M11.197,44.362c-0.388,0 -0.735,-0.268 -0.822,-0.661c-0.099,-0.455 0.189,-0.902 0.641,-1.001c2.497,-0.547 4.429,-2.733 4.702,-5.316c0.027,-0.256 0.169,-0.484 0.387,-0.624c0.216,-0.139 0.484,-0.169 0.728,-0.084c1.791,0.626 2.946,-0.38 4.63,-2.109c0.673,-0.691 1.369,-1.406 2.159,-1.928c1.627,-1.073 3.627,-1.153 5.093,-0.196c0.884,0.576 1.443,1.436 1.637,2.467c0.027,-0.045 0.05,-0.092 0.07,-0.139c0.147,-0.34 0.122,-0.701 -0.075,-1.073c-0.137,-0.258 -0.129,-0.571 0.02,-0.822c0.149,-0.253 0.42,-0.407 0.713,-0.412c1.411,-0.017 2.586,-0.283 3.505,-0.795c-0.939,-0.86 -1.925,-1.148 -2.939,-0.857c-0.311,0.09 -0.643,-0.007 -0.857,-0.246c-0.216,-0.241 -0.273,-0.581 -0.154,-0.879c0.233,-0.574 0.209,-1.212 -0.067,-1.662c-0.03,-0.05 -0.06,-0.094 -0.094,-0.137c-0.159,1.314 -0.82,2.447 -1.868,3.123c-1.406,0.907 -3.197,0.84 -4.797,-0.181c-0.745,-0.474 -1.409,-1.2 -2.111,-1.967c-1.679,-1.833 -2.812,-2.887 -4.35,-2.062c-0.251,0.134 -0.552,0.134 -0.802,-0.002c-0.248,-0.137 -0.412,-0.39 -0.435,-0.673c-0.216,-2.757 -1.93,-5.984 -5.177,-6.551c-0.457,-0.079 -0.765,-0.517 -0.686,-0.974c0.079,-0.457 0.512,-0.76 0.974,-0.683c3.696,0.643 5.82,3.89 6.419,6.99c2.256,-0.492 3.987,1.391 5.296,2.82c0.626,0.683 1.217,1.327 1.776,1.684c1.028,0.656 2.144,0.725 2.979,0.186c0.867,-0.559 1.274,-1.642 1.095,-2.896c-0.037,-0.256 0.045,-0.512 0.224,-0.698c0.176,-0.186 0.432,-0.283 0.686,-0.258c0.994,0.092 1.813,0.591 2.308,1.406c0.335,0.552 0.494,1.205 0.47,1.873c1.446,0.027 2.847,0.797 4.039,2.251c0.291,0.355 0.243,0.879 -0.107,1.177c-1.081,0.914 -2.499,1.463 -4.221,1.64c0.04,0.46 -0.035,0.919 -0.221,1.354c-0.38,0.879 -1.212,1.572 -2.226,1.848c-0.278,0.075 -0.574,0.005 -0.788,-0.186c-0.214,-0.194 -0.313,-0.479 -0.266,-0.763c0.186,-1.105 -0.132,-1.987 -0.892,-2.484c-0.892,-0.579 -2.196,-0.504 -3.249,0.191c-0.638,0.422 -1.242,1.041 -1.88,1.697c-1.366,1.401 -3.031,3.108 -5.435,2.76c-0.676,2.872 -2.971,5.207 -5.858,5.84c-0.06,0.012 -0.122,0.02 -0.181,0.02l0.008,-0.005Z" style="fill:#aa5e1b;fill-rule:nonzero;"/><path d="M11.294,40.455c-0.303,0 -0.596,-0.164 -0.745,-0.45c-0.216,-0.412 -0.057,-0.919 0.355,-1.135c1.418,-0.743 2.3,-2.367 2.146,-3.947c-0.025,-0.251 0.064,-0.499 0.241,-0.676c0.176,-0.179 0.425,-0.268 0.676,-0.243c1.225,0.119 4.422,-0.457 5.751,-1.59c0.348,-0.296 0.527,-0.586 0.546,-0.887c0.005,-0.077 0.02,-0.308 -0.368,-0.636c-1.267,-1.073 -4.7,-1.498 -5.78,-1.245c-0.288,0.067 -0.589,-0.022 -0.795,-0.233c-0.206,-0.211 -0.286,-0.517 -0.209,-0.802c0.489,-1.848 -0.079,-4.305 -2.104,-5.219c-0.422,-0.191 -0.611,-0.688 -0.422,-1.113c0.191,-0.425 0.691,-0.611 1.113,-0.422c2.193,0.989 3.465,3.458 3.239,6.036c1.833,-0.007 4.628,0.512 6.044,1.712c0.855,0.723 0.994,1.503 0.959,2.027c-0.05,0.768 -0.432,1.461 -1.135,2.062c-1.528,1.299 -4.327,1.905 -6.076,1.992c-0.149,1.928 -1.317,3.763 -3.048,4.673c-0.124,0.065 -0.258,0.097 -0.39,0.097l0.002,0Z" style="fill:#aa5e1b;fill-opacity:0.5;fill-rule:nonzero;"/><path d="M16.662,55.553c-0.333,0 -0.648,-0.199 -0.78,-0.529c-0.174,-0.43 0.035,-0.922 0.467,-1.093c1.567,-0.631 2.912,-1.774 3.783,-3.219c0.872,-1.446 1.255,-3.17 1.081,-4.849c-0.032,-0.298 0.099,-0.591 0.343,-0.768c0.243,-0.176 0.561,-0.211 0.837,-0.089c1.682,0.748 3.989,0.797 6.332,0.134c4.462,-1.262 8.165,-4.958 9.435,-9.417c1.272,-4.459 0.072,-9.554 -3.056,-12.977c-3.127,-3.423 -8.096,-5.078 -12.647,-4.218c-0.268,0.05 -0.544,-0.032 -0.74,-0.221c-0.196,-0.189 -0.288,-0.464 -0.246,-0.733c0.306,-1.977 0.139,-3.632 -0.514,-5.055c-0.648,-1.416 -1.764,-2.598 -3.142,-3.331c-0.41,-0.219 -0.566,-0.728 -0.348,-1.138c0.219,-0.41 0.728,-0.566 1.138,-0.348c1.702,0.902 3.08,2.365 3.883,4.116c0.661,1.446 0.919,3.056 0.777,4.891c4.794,-0.522 9.827,1.336 13.084,4.904c3.513,3.846 4.859,9.566 3.431,14.572c-1.426,5.008 -5.587,9.159 -10.597,10.575c-2.201,0.621 -4.409,0.688 -6.25,0.209c-0.052,1.62 -0.519,3.219 -1.359,4.611c-1.058,1.759 -2.693,3.147 -4.596,3.913c-0.102,0.042 -0.209,0.062 -0.313,0.062l-0.003,0Z" style="fill:#aa5e1b;fill-rule:nonzero;"/><path d="M22.401,22.844c-0.628,0 -1.255,-0.219 -1.736,-0.629c-0.355,-0.3 -0.398,-0.832 -0.097,-1.185c0.301,-0.353 0.832,-0.398 1.185,-0.097c0.253,0.216 0.646,0.288 0.959,0.174c0.31,-0.112 0.569,-0.417 0.628,-0.745c0.082,-0.457 0.514,-0.763 0.976,-0.681c0.457,0.082 0.763,0.517 0.681,0.976c-0.164,0.919 -0.837,1.719 -1.716,2.034c-0.283,0.102 -0.584,0.152 -0.882,0.152l0.003,0Z" style="fill:#aa5e1b;fill-opacity:0.6;fill-rule:nonzero;"/><path d="M24.152,42.523c-0.407,0 -0.763,-0.296 -0.83,-0.708c-0.06,-0.37 -0.333,-0.71 -0.681,-0.847c-0.348,-0.139 -0.78,-0.077 -1.076,0.149c-0.368,0.283 -0.897,0.214 -1.18,-0.154c-0.283,-0.368 -0.214,-0.897 0.154,-1.18c0.763,-0.586 1.831,-0.735 2.725,-0.38c0.892,0.355 1.567,1.197 1.719,2.146c0.075,0.459 -0.239,0.889 -0.698,0.964c-0.045,0.008 -0.089,0.01 -0.134,0.01Z" style="fill:#aa5e1b;fill-opacity:0.6;fill-rule:nonzero;"/><path d="M26.052,27.194c-0.407,0 -0.817,-0.127 -1.15,-0.387c-0.365,-0.286 -0.43,-0.815 -0.144,-1.18c0.288,-0.365 0.815,-0.43 1.18,-0.144c0.06,0.047 0.216,0.035 0.268,-0.022c0.313,-0.345 0.845,-0.37 1.187,-0.06c0.345,0.313 0.37,0.845 0.06,1.187c-0.363,0.4 -0.882,0.609 -1.404,0.609l0.002,-0.003Z" style="fill:#aa5e1b;fill-opacity:0.6;fill-rule:nonzero;"/><path d="M26.588,37.998c-0.318,0 -0.621,-0.181 -0.763,-0.487c-0.027,-0.06 -0.085,-0.112 -0.144,-0.137c-0.06,-0.025 -0.139,-0.025 -0.199,0c-0.432,0.174 -0.922,-0.03 -1.098,-0.459c-0.176,-0.43 0.03,-0.922 0.46,-1.098c0.459,-0.189 0.989,-0.191 1.451,-0.01c0.462,0.181 0.847,0.544 1.056,0.994c0.196,0.422 0.012,0.922 -0.41,1.118c-0.114,0.052 -0.236,0.077 -0.353,0.077l0,0.002Z" style="fill:#aa5e1b;fill-opacity:0.6;fill-rule:nonzero;"/><path d="M282.347,37.506c-1.15,0 -2.315,-0.293 -3.336,-0.874c-2.323,-1.319 -3.6,-3.995 -3.033,-6.367c0.404,-1.697 1.738,-3.19 3.48,-3.9c1.52,-0.619 3.334,-0.668 5.1,-0.139c2.914,0.874 4.061,3.537 3.905,5.79c-0.144,2.092 -1.508,4.024 -3.47,4.926c-0.82,0.378 -1.729,0.564 -2.644,0.564l-0.002,0Zm-0.221,-9.961c-0.723,0 -1.414,0.127 -2.035,0.38c-1.249,0.509 -2.198,1.555 -2.479,2.733c-0.387,1.632 0.569,3.572 2.226,4.514c1.376,0.78 3.08,0.874 4.449,0.246c1.391,-0.638 2.392,-2.049 2.494,-3.513c0.102,-1.468 -0.546,-3.413 -2.71,-4.062c-0.656,-0.196 -1.314,-0.293 -1.948,-0.293l0.003,-0.005Z" style="fill:#aa5e1b;fill-rule:nonzero;"/><path d="M282.362,22.462c-1.277,0 -2.546,-0.8 -3.411,-2.161c-0.385,-0.606 -0.663,-1.247 -0.931,-1.866c-0.199,-0.457 -0.386,-0.889 -0.609,-1.294c-0.253,-0.462 -0.954,-1.555 -1.963,-1.707c-0.355,-0.055 -0.636,-0.325 -0.7,-0.678c-0.067,-0.353 0.099,-0.708 0.41,-0.884c1.659,-0.952 3.825,-0.773 5.39,0.283c0.301,-1.287 0.746,-2.365 1.349,-3.269c0.137,-0.206 0.358,-0.34 0.606,-0.368c0.246,-0.027 0.492,0.055 0.674,0.224c0.953,0.902 1.565,2.121 1.753,3.406c0.405,-0.231 0.852,-0.41 1.327,-0.522c1.292,-0.303 2.618,-0.087 3.637,0.599c0.303,0.204 0.439,0.576 0.34,0.927c-0.099,0.35 -0.412,0.596 -0.775,0.611c-0.718,0.03 -1.54,0.584 -2.092,1.413c-0.305,0.46 -0.546,0.976 -0.8,1.523c-0.223,0.479 -0.452,0.976 -0.74,1.453c-0.849,1.414 -2.062,2.256 -3.329,2.308c-0.042,0 -0.084,0.003 -0.129,0.003l-0.007,0Zm-4.494,-7.52c0.375,0.38 0.718,0.845 1.016,1.386c0.261,0.475 0.474,0.964 0.678,1.436c0.254,0.584 0.494,1.138 0.81,1.632c0.44,0.691 1.215,1.418 2.049,1.381c0.681,-0.03 1.411,-0.586 1.958,-1.493c0.241,-0.402 0.442,-0.837 0.656,-1.297c0.268,-0.581 0.546,-1.18 0.926,-1.746c0.231,-0.345 0.527,-0.698 0.882,-1.018c-0.067,0.013 -0.136,0.025 -0.204,0.042c-0.839,0.199 -1.532,0.691 -1.907,1.351c-0.209,0.368 -0.656,0.524 -1.046,0.368c-0.393,-0.157 -0.606,-0.579 -0.502,-0.989c0.266,-1.038 0.082,-2.188 -0.457,-3.123c-0.375,0.862 -0.641,1.895 -0.795,3.09c-0.045,0.345 -0.298,0.628 -0.636,0.71c-0.34,0.082 -0.693,-0.052 -0.892,-0.34c-0.561,-0.815 -1.537,-1.307 -2.534,-1.389l-0.002,-0.002Z" style="fill:#aa5e1b;fill-rule:nonzero;"/><path d="M282.59,52.825c-0.032,0 -0.062,0 -0.094,-0.005c-0.246,-0.027 -0.467,-0.161 -0.606,-0.37c-0.604,-0.904 -1.049,-1.982 -1.349,-3.269c-1.565,1.056 -3.729,1.235 -5.391,0.283c-0.31,-0.179 -0.474,-0.534 -0.41,-0.884c0.067,-0.353 0.348,-0.623 0.701,-0.678c1.008,-0.151 1.709,-1.245 1.962,-1.707c0.224,-0.407 0.413,-0.837 0.609,-1.294c0.268,-0.619 0.546,-1.26 0.931,-1.866c0.895,-1.409 2.211,-2.233 3.54,-2.159c1.267,0.052 2.479,0.894 3.329,2.308c0.288,0.479 0.519,0.974 0.74,1.453c0.254,0.547 0.492,1.063 0.8,1.523c0.554,0.83 1.374,1.384 2.092,1.413c0.363,0.015 0.676,0.261 0.775,0.611c0.099,0.35 -0.037,0.723 -0.34,0.927c-1.019,0.686 -2.343,0.902 -3.637,0.599c-0.475,-0.112 -0.922,-0.288 -1.327,-0.522c-0.189,1.284 -0.797,2.504 -1.754,3.406c-0.156,0.149 -0.365,0.229 -0.578,0.229l0.007,0.002Zm-1.495,-6.183c0.064,0 0.131,0.007 0.198,0.025c0.338,0.082 0.592,0.365 0.636,0.711c0.154,1.195 0.42,2.228 0.795,3.09c0.537,-0.934 0.723,-2.084 0.457,-3.123c-0.104,-0.41 0.11,-0.832 0.502,-0.989c0.393,-0.157 0.84,0 1.046,0.368c0.373,0.661 1.068,1.155 1.908,1.351c0.067,0.015 0.136,0.03 0.203,0.042c-0.352,-0.321 -0.65,-0.676 -0.881,-1.019c-0.378,-0.566 -0.656,-1.168 -0.927,-1.746c-0.214,-0.46 -0.415,-0.894 -0.656,-1.297c-0.544,-0.907 -1.277,-1.466 -1.957,-1.493c-0.837,-0.05 -1.61,0.691 -2.05,1.381c-0.315,0.494 -0.554,1.048 -0.81,1.632c-0.206,0.472 -0.417,0.961 -0.678,1.436c-0.298,0.542 -0.638,1.006 -1.016,1.386c0.999,-0.082 1.973,-0.576 2.534,-1.389c0.159,-0.231 0.42,-0.363 0.693,-0.363l0.003,-0.005Z" style="fill:#aa5e1b;fill-rule:nonzero;"/><path d="M318.753,44.362c-0.06,0 -0.119,-0.005 -0.182,-0.02c-2.884,-0.631 -5.181,-2.966 -5.857,-5.84c-2.41,0.348 -4.069,-1.356 -5.435,-2.76c-0.639,-0.656 -1.242,-1.274 -1.883,-1.697c-1.054,-0.696 -2.358,-0.77 -3.25,-0.191c-0.762,0.497 -1.078,1.379 -0.891,2.484c0.047,0.283 -0.053,0.571 -0.266,0.763c-0.211,0.194 -0.51,0.263 -0.788,0.186c-1.013,-0.276 -1.843,-0.969 -2.226,-1.848c-0.188,-0.435 -0.26,-0.894 -0.221,-1.354c-1.724,-0.174 -3.14,-0.723 -4.22,-1.639c-0.35,-0.298 -0.4,-0.82 -0.107,-1.175c1.192,-1.453 2.591,-2.223 4.039,-2.251c-0.025,-0.668 0.134,-1.322 0.47,-1.873c0.494,-0.815 1.316,-1.314 2.308,-1.406c0.255,-0.025 0.509,0.072 0.685,0.258c0.177,0.186 0.261,0.445 0.224,0.698c-0.182,1.254 0.228,2.335 1.095,2.896c0.837,0.542 1.95,0.472 2.979,-0.186c0.559,-0.358 1.15,-1.001 1.776,-1.684c1.309,-1.428 3.038,-3.321 5.296,-2.819c0.596,-3.1 2.723,-6.345 6.419,-6.99c0.462,-0.075 0.894,0.229 0.974,0.683c0.079,0.457 -0.226,0.894 -0.686,0.974c-3.249,0.566 -4.961,3.793 -5.177,6.551c-0.022,0.283 -0.186,0.537 -0.434,0.673c-0.249,0.137 -0.552,0.137 -0.8,0.003c-1.538,-0.827 -2.671,0.226 -4.35,2.062c-0.703,0.768 -1.366,1.49 -2.112,1.965c-1.599,1.018 -3.39,1.088 -4.796,0.181c-1.049,-0.676 -1.707,-1.811 -1.869,-3.122c-0.034,0.042 -0.064,0.089 -0.094,0.137c-0.276,0.452 -0.301,1.088 -0.067,1.664c0.122,0.298 0.062,0.638 -0.154,0.879c-0.216,0.238 -0.549,0.335 -0.857,0.246c-1.014,-0.293 -2,0 -2.939,0.857c0.922,0.512 2.097,0.778 3.508,0.795c0.293,0.002 0.564,0.159 0.713,0.412c0.149,0.253 0.156,0.564 0.02,0.822c-0.197,0.373 -0.221,0.733 -0.075,1.073c0.02,0.047 0.045,0.094 0.07,0.139c0.191,-1.031 0.75,-1.89 1.634,-2.467c1.468,-0.954 3.468,-0.879 5.093,0.196c0.79,0.522 1.485,1.235 2.161,1.928c1.684,1.729 2.839,2.735 4.63,2.109c0.244,-0.084 0.512,-0.055 0.728,0.084c0.216,0.137 0.36,0.368 0.388,0.623c0.273,2.584 2.208,4.77 4.702,5.316c0.455,0.099 0.74,0.549 0.641,1.001c-0.087,0.392 -0.435,0.661 -0.822,0.661l0.005,0.002Z" style="fill:#aa5e1b;fill-rule:nonzero;"/><path d="M325.237,38.181c-0.264,0 -0.542,-0.055 -0.822,-0.169c-1.3,-0.529 -2.241,-1.781 -2.795,-3.721c-0.517,-1.803 -0.596,-3.458 -0.236,-4.919c0.45,-1.828 1.629,-3.339 3.16,-4.034c0.775,-0.353 1.304,-0.191 1.612,0.005c0.325,0.209 0.705,0.646 0.668,1.538c-0.03,0.71 -0.223,1.406 -0.554,2.029c1.595,0.149 3.093,0.85 4.164,2.002c0.154,0.167 0.236,0.388 0.223,0.614c-0.01,0.226 -0.112,0.437 -0.281,0.589c-1.132,1.006 -2.707,1.702 -4.327,1.94c0.313,0.725 0.455,1.379 0.586,1.977l0.03,0.132c0.052,0.231 0.186,0.847 -0.166,1.379c-0.271,0.415 -0.736,0.636 -1.262,0.636l0,0.002Zm-0.102,-11.261c-1.014,0.507 -1.801,1.565 -2.117,2.854c-0.288,1.172 -0.213,2.536 0.222,4.054c0.273,0.959 0.802,2.181 1.761,2.603l-0.008,-0.04c-0.183,-0.847 -0.36,-1.645 -1.006,-2.621c-0.174,-0.261 -0.186,-0.596 -0.037,-0.87c0.152,-0.273 0.435,-0.437 0.753,-0.437c1.301,0.025 2.69,-0.368 3.776,-1.031c-1.091,-0.758 -2.519,-1.046 -3.918,-0.76c-0.387,0.082 -0.775,-0.122 -0.936,-0.482c-0.162,-0.36 -0.05,-0.782 0.265,-1.018c0.706,-0.524 1.175,-1.379 1.245,-2.253Z" style="fill:#aa5e1b;fill-opacity:0.3;fill-rule:nonzero;"/><path d="M318.656,40.455c-0.132,0 -0.266,-0.03 -0.39,-0.097c-1.732,-0.909 -2.899,-2.745 -3.049,-4.673c-1.748,-0.09 -4.548,-0.693 -6.076,-1.992c-0.703,-0.599 -1.085,-1.292 -1.135,-2.059c-0.035,-0.527 0.104,-1.304 0.959,-2.027c1.408,-1.192 4.171,-1.712 6.007,-1.712l0.039,0c-0.226,-2.578 1.049,-5.048 3.24,-6.037c0.422,-0.191 0.921,-0.002 1.113,0.422c0.191,0.422 0,0.922 -0.42,1.113c-2.022,0.912 -2.594,3.369 -2.104,5.219c0.074,0.286 -0.005,0.589 -0.212,0.802c-0.206,0.211 -0.506,0.301 -0.794,0.233c-1.086,-0.253 -4.517,0.174 -5.781,1.244c-0.388,0.328 -0.373,0.561 -0.368,0.636c0.02,0.301 0.199,0.591 0.547,0.887c1.329,1.133 4.528,1.709 5.751,1.59c0.248,-0.025 0.496,0.065 0.675,0.243c0.179,0.179 0.266,0.425 0.241,0.676c-0.154,1.58 0.728,3.202 2.147,3.947c0.412,0.216 0.571,0.725 0.355,1.135c-0.152,0.286 -0.442,0.45 -0.745,0.45l0,-0.003Z" style="fill:#aa5e1b;fill-opacity:0.5;fill-rule:nonzero;"/><path d="M313.29,55.553c-0.104,0 -0.211,-0.02 -0.313,-0.062c-1.905,-0.765 -3.537,-2.154 -4.596,-3.912c-0.839,-1.391 -1.306,-2.993 -1.358,-4.611c-1.841,0.48 -4.05,0.415 -6.251,-0.209c-5.01,-1.419 -9.168,-5.569 -10.597,-10.575c-1.426,-5.008 -0.079,-10.726 3.433,-14.572c3.257,-3.567 8.287,-5.425 13.084,-4.904c-0.141,-1.838 0.117,-3.446 0.778,-4.891c0.802,-1.751 2.181,-3.215 3.882,-4.116c0.41,-0.219 0.92,-0.062 1.138,0.348c0.219,0.41 0.062,0.919 -0.348,1.138c-1.376,0.73 -2.491,1.913 -3.142,3.331c-0.651,1.423 -0.82,3.075 -0.514,5.055c0.042,0.271 -0.05,0.544 -0.246,0.733c-0.196,0.191 -0.472,0.271 -0.74,0.221c-4.554,-0.862 -9.52,0.795 -12.647,4.218c-3.128,3.423 -4.328,8.518 -3.056,12.977c1.27,4.459 4.974,8.156 9.438,9.417c2.342,0.663 4.65,0.614 6.332,-0.134c0.273,-0.122 0.593,-0.087 0.837,0.089c0.243,0.176 0.372,0.47 0.343,0.768c-0.177,1.679 0.208,3.401 1.08,4.849c0.872,1.446 2.216,2.591 3.783,3.22c0.433,0.174 0.641,0.663 0.468,1.093c-0.132,0.328 -0.448,0.529 -0.781,0.529l-0.007,0Z" style="fill:#aa5e1b;fill-rule:nonzero;"/><path d="M307.55,22.843c-0.299,0 -0.599,-0.05 -0.882,-0.152c-0.88,-0.315 -1.553,-1.115 -1.717,-2.035c-0.082,-0.457 0.224,-0.894 0.683,-0.976c0.46,-0.079 0.895,0.223 0.977,0.683c0.057,0.325 0.315,0.633 0.628,0.745c0.313,0.112 0.706,0.04 0.959,-0.174c0.353,-0.301 0.884,-0.258 1.185,0.097c0.3,0.353 0.258,0.884 -0.097,1.185c-0.482,0.41 -1.108,0.629 -1.736,0.629l0,-0.003Z" style="fill:#aa5e1b;fill-opacity:0.6;fill-rule:nonzero;"/><path d="M305.8,42.523c-0.044,0 -0.089,-0.003 -0.134,-0.01c-0.459,-0.072 -0.772,-0.504 -0.698,-0.964c0.152,-0.949 0.827,-1.791 1.719,-2.146c0.892,-0.355 1.96,-0.206 2.723,0.38c0.367,0.283 0.437,0.812 0.154,1.18c-0.283,0.368 -0.812,0.437 -1.18,0.154c-0.296,-0.229 -0.728,-0.288 -1.076,-0.149c-0.348,0.139 -0.621,0.479 -0.68,0.847c-0.067,0.415 -0.423,0.708 -0.83,0.708l0.002,0Z" style="fill:#aa5e1b;fill-opacity:0.6;fill-rule:nonzero;"/><path d="M303.898,27.194c-0.52,0 -1.039,-0.206 -1.404,-0.609c-0.313,-0.345 -0.286,-0.877 0.06,-1.187c0.345,-0.313 0.874,-0.286 1.187,0.06c0.052,0.057 0.209,0.07 0.268,0.022c0.368,-0.286 0.895,-0.221 1.18,0.144c0.286,0.365 0.221,0.894 -0.144,1.18c-0.333,0.261 -0.743,0.387 -1.15,0.387l0.003,0.003Z" style="fill:#aa5e1b;fill-opacity:0.6;fill-rule:nonzero;"/><path d="M303.361,37.998c-0.117,0 -0.239,-0.025 -0.353,-0.077c-0.422,-0.194 -0.606,-0.696 -0.412,-1.115c0.209,-0.45 0.594,-0.815 1.056,-0.996c0.462,-0.181 0.991,-0.179 1.45,0.01c0.43,0.176 0.636,0.666 0.462,1.095c-0.176,0.43 -0.665,0.638 -1.095,0.462c-0.06,-0.025 -0.139,-0.025 -0.199,0c-0.059,0.022 -0.117,0.077 -0.144,0.134c-0.142,0.308 -0.447,0.489 -0.765,0.489l0,-0.003Z" style="fill:#aa5e1b;fill-opacity:0.6;fill-rule:nonzero;"/><path d="M283.405,29.543c-1.006,-0.688 -2.538,-0.422 -3.254,0.562c-0.715,0.986 -0.492,2.526 0.472,3.269c0.967,0.743 2.512,0.561 3.279,-0.383c0.768,-0.944 0.721,-2.613 -0.499,-3.448l0.002,0Z" style="fill:#aa5e1b;fill-rule:nonzero;"/><path d="M49.652,29.543c-1.006,-0.688 -2.539,-0.422 -3.254,0.562c-0.715,0.986 -0.492,2.526 0.472,3.269c0.966,0.743 2.512,0.561 3.279,-0.383c0.768,-0.944 0.72,-2.613 -0.499,-3.448l0.002,0Z" style="fill:#aa5e1b;fill-rule:nonzero;"/><rect x="59.599" y="0" width="211.972" height="1.682" style="fill:#aa5e1b;fill-opacity:0.4;fill-rule:nonzero;"/><rect x="59.599" y="60.799" width="211.972" height="1.682" style="fill:#aa5e1b;fill-opacity:0.4;fill-rule:nonzero;"/><rect x="33.498" y="57.435" width="264.171" height="1.682" style="fill:#aa5e1b;fill-opacity:0.8;fill-rule:nonzero;"/><rect x="33.498" y="3.367" width="264.171" height="1.682" style="fill:#aa5e1b;fill-opacity:0.8;fill-rule:nonzero;"/></svg>