<?xml version="1.0" encoding="UTF-8" standalone="no"?><!DOCTYPE svg PUBLIC "-//W3C//DTD SVG 1.1//EN" "http://www.w3.org/Graphics/SVG/1.1/DTD/svg11.dtd"><svg width="100%" height="100%" viewBox="0 0 42 30" version="1.1" xmlns="http://www.w3.org/2000/svg" xmlns:xlink="http://www.w3.org/1999/xlink" xml:space="preserve" xmlns:serif="http://www.serif.com/" style="fill-rule:evenodd;clip-rule:evenodd;stroke-linejoin:round;stroke-miterlimit:2;"><g><clipPath id="_clip1"><rect x="0" y="0" width="42" height="25.565"/></clipPath><g clip-path="url(#_clip1)"><path d="M6.79,7.913c-1.561,0.114 -1.316,-2.122 -0.547,-2.972c-0.191,-0.193 -0.953,0.661 -1.101,0.829c-1.08,1.239 -1.971,3.73 -0.451,4.926c0.387,0.157 0.177,-0.623 0.646,-1.02c0.981,-0.829 1.936,1.185 0.79,2.111c-1.828,1.477 -3.608,-0.915 -3.541,-2.847c0.145,-4.279 4.951,-7.483 8.776,-7.902l-2.174,1.597c-1.318,1.447 -2.211,3.298 -2.396,5.278l-0.002,0Z" style="fill:#aa5e1b;fill-rule:nonzero;"/><path d="M4.844,21.411c-1.5,-1.524 -2.752,-4.151 -2.038,-6.306c0.845,-2.544 4.719,-2.19 3.574,0.751c-0.992,0.606 -1.463,-0.022 -1.421,-1.069c-2.314,1.153 -0.482,5.076 1.279,5.946c0.02,-0.445 -0.407,-0.62 -0.508,-1.059c-0.208,-0.911 -0.127,-1.729 0.784,-2.094c0.173,0.009 0.802,2.319 0.972,2.723c0.83,1.982 2.148,3.322 4.057,4.241c-2.262,-0.226 -5.084,-1.486 -6.703,-3.131l0.004,-0.002Z" style="fill:#aa5e1b;fill-rule:nonzero;"/><path d="M29.714,24.45c0.501,-0.547 1.27,-0.882 1.809,-1.411c1.401,-1.379 2.257,-3.534 2.581,-5.462c1.399,0.468 1.045,1.885 0.547,2.97c0.221,0.185 1.204,-0.9 1.36,-1.125c0.878,-1.271 1.432,-3.573 0.011,-4.631c-0.414,0.262 0,0.745 -0.317,1.065c-0.604,0.612 -1.596,-0.067 -1.548,-0.949c0.121,-2.225 3.589,-1.922 3.95,0.732c0.641,4.711 -4.274,8.275 -8.393,8.808l0,0.002Z" style="fill:#aa5e1b;fill-rule:nonzero;"/><path d="M35.748,10.698c0.628,0.097 0.992,-0.459 1.086,-1.031c0.294,-1.801 -0.541,-3.91 -2.181,-4.728c0.429,1.102 0.963,2.516 -0.548,2.972c-0.293,-1.615 -0.946,-3.169 -1.861,-4.52l-2.711,-2.353c4.119,0.434 9.906,4.623 8.421,9.392c-0.979,3.144 -5.498,1.45 -3,-1.001c0.665,0.077 1.126,0.651 0.797,1.267l-0.002,0.002Z" style="fill:#aa5e1b;fill-rule:nonzero;"/><path d="M39.223,13.674c0.477,0.923 0.712,2.115 -0.548,2.414c-0.037,-1.4 -0.762,-3.215 -2.376,-3.159c0.122,-0.346 0.666,-0.311 1.007,-0.554c0.86,-0.618 1.428,-1.911 1.371,-2.974c1.222,0.442 1.13,1.724 0.364,2.6c0.236,0.191 1.047,-0.805 1.923,0c1.276,1.172 -0.466,2.375 -1.739,1.677l-0.002,-0.004Z" style="fill:#aa5e1b;fill-rule:nonzero;"/><path d="M2.036,16.831c-0.379,-0.288 -0.709,-0.99 -0.869,-1.437c-0.79,-2.209 -0.71,-4.75 0.869,-6.553c-0.131,1.954 0.67,3.444 2.564,3.996c-1.853,0.245 -2.706,2.259 -2.564,3.994Z" style="fill:#aa5e1b;fill-rule:nonzero;"/><path d="M36.294,16.089c-3.041,2.248 -3.974,-2.867 -0.727,-3.251c-3.234,-0.504 -2.409,-5.535 0.727,-3.438c0.079,-0.887 -0.007,-1.61 -0.366,-2.414l-1.11,1.376l-1.264,0.296c-0.423,-4.428 -3.263,-7.659 -7.513,-7.825l-11.323,-0c-0.225,0.007 -0.451,0.021 -0.681,0.045c-4.174,0.434 -6.17,3.846 -6.871,7.706c-1.016,0.026 -2.034,-0.447 -2.021,-1.595c-0.175,-0.189 -0.972,1.63 -0.641,2.233c0.191,0.346 0.687,-0.346 1.112,-0.372c0.893,-0.056 1.747,0.831 1.741,1.765c-0.007,1.246 -0.887,1.731 -1.844,2.231c3.054,0.812 1.995,4.982 -1.097,3.438l0.55,2.413c0.307,-0.026 0.153,-0.496 0.352,-0.846c0.271,-0.474 1.351,-1.117 1.853,-0.745c0.574,4.928 4.02,7.457 7.546,7.608l11.323,0c3.56,-0.142 7.027,-2.703 7.53,-7.668c1.404,-0.301 1.629,0.612 2.358,1.467c0.352,-0.808 0.449,-1.524 0.366,-2.414l0,-0.008Z" style="fill:#fff;fill-rule:nonzero;"/><path d="M40.134,11.071c0.32,-0.53 -0.035,-1.473 -0.451,-1.862c-0.252,-0.236 -0.773,-0.316 -0.918,-0.554c-0.175,-0.284 -0.195,-1.189 -0.372,-1.666c-1.712,-4.621 -7.022,-6.903 -12.372,-6.989l-11.303,0c-4.533,0.073 -8.993,1.718 -11.216,4.846c-0.635,0.893 -0.802,1.758 -1.274,2.609c-0.854,1.544 -1.923,2.265 -2.199,4.359c-0.083,0.629 0.059,1.394 -0,2.044c0.377,0.859 0.547,1.773 0.999,2.607c0.607,1.123 1.322,2.276 1.96,3.395c2.216,3.876 5.956,4.849 10.02,5.703l1.71,0l0,-0.03l11.303,0l0,0.03l1.682,0c4.517,-0.436 9.683,-2.983 10.927,-7.758c0.075,-0.292 -0.029,-0.779 0.072,-0.947c0.105,-0.172 1.218,-0.354 1.54,-1.52c0.077,-0.279 -0.086,-0.668 -0.028,-0.75c0.114,-0.159 0.887,-0.251 1.244,-0.543c1.218,-0.996 0.208,-3.184 -1.323,-2.978l-0.002,0.004Zm-2.183,-0.638c-0.979,3.144 -5.498,1.45 -3,-1.001c0.664,0.077 1.126,0.651 0.797,1.267c0.628,0.097 0.992,-0.459 1.086,-1.031c0.294,-1.801 -0.541,-3.91 -2.181,-4.728c0.429,1.102 0.963,2.516 -0.548,2.972c-0.293,-1.615 -0.946,-3.169 -1.861,-4.52l-2.711,-2.353c4.119,0.434 9.906,4.623 8.421,9.392l-0.002,0.002Zm-35.367,-1.492c0.147,-4.279 4.953,-7.483 8.778,-7.902l-2.174,1.597c-1.318,1.447 -2.211,3.298 -2.396,5.278c-1.561,0.114 -1.316,-2.122 -0.547,-2.972c-0.191,-0.193 -0.953,0.661 -1.101,0.829c-1.08,1.239 -1.971,3.73 -0.451,4.926c0.387,0.157 0.177,-0.623 0.646,-1.02c0.981,-0.829 1.936,1.185 0.79,2.111c-1.828,1.477 -3.608,-0.915 -3.541,-2.847l-0.004,0Zm-1.417,6.454c-0.79,-2.209 -0.71,-4.75 0.869,-6.553c-0.131,1.954 0.67,3.444 2.564,3.996c-1.853,0.245 -2.706,2.259 -2.564,3.994c-0.379,-0.288 -0.709,-0.99 -0.869,-1.437Zm3.677,6.017c-1.5,-1.523 -2.752,-4.151 -2.038,-6.306c0.845,-2.544 4.719,-2.19 3.574,0.751c-0.992,0.606 -1.463,-0.023 -1.421,-1.069c-2.314,1.153 -0.482,5.076 1.279,5.946c0.02,-0.446 -0.407,-0.62 -0.508,-1.059c-0.208,-0.912 -0.127,-1.729 0.784,-2.094c0.173,0.009 0.802,2.319 0.972,2.723c0.83,1.982 2.148,3.322 4.057,4.241c-2.262,-0.226 -5.084,-1.486 -6.703,-3.131l0.004,-0.002Zm21.176,3.296l-11.303,0c-3.527,-0.154 -6.972,-2.682 -7.546,-7.61c-0.501,-0.371 -1.583,0.273 -1.853,0.745c-0.201,0.35 -0.044,0.82 -0.352,0.846l-0.55,-2.413c3.092,1.544 4.15,-2.626 1.097,-3.438c0.957,-0.5 1.839,-0.983 1.844,-2.231c0.006,-0.932 -0.848,-1.819 -1.741,-1.765c-0.425,0.026 -0.92,0.719 -1.112,0.372c-0.333,-0.601 0.464,-2.422 0.641,-2.233c-0.015,1.147 1.005,1.621 2.021,1.595c0.703,-3.859 2.696,-7.27 6.871,-7.706c0.23,-0.024 0.456,-0.037 0.681,-0.045l11.303,0c4.261,0.159 7.11,3.391 7.534,7.827l1.264,-0.296l1.11,-1.376c0.359,0.805 0.445,1.527 0.366,2.414c-3.136,-2.096 -3.963,2.935 -0.727,3.438c-3.245,0.384 -2.312,5.499 0.727,3.251c0.083,0.891 -0.015,1.606 -0.366,2.415c-0.729,-0.855 -0.953,-1.769 -2.358,-1.467c-0.504,4.975 -3.983,7.537 -7.55,7.67l0,0.006Zm3.694,-0.258c0.501,-0.547 1.27,-0.882 1.809,-1.411c1.401,-1.379 2.257,-3.534 2.58,-5.462c1.399,0.468 1.045,1.885 0.547,2.97c0.221,0.185 1.204,-0.9 1.36,-1.125c0.878,-1.271 1.432,-3.573 0.011,-4.631c-0.414,0.262 0,0.745 -0.317,1.065c-0.604,0.612 -1.596,-0.067 -1.548,-0.949c0.121,-2.225 3.589,-1.922 3.95,0.732c0.641,4.711 -4.274,8.275 -8.393,8.808l0,0.002Zm9.508,-10.775c0.477,0.923 0.712,2.115 -0.548,2.415c-0.037,-1.4 -0.762,-3.216 -2.376,-3.159c0.122,-0.346 0.666,-0.311 1.007,-0.554c0.86,-0.618 1.428,-1.911 1.371,-2.974c1.222,0.442 1.13,1.724 0.364,2.6c0.236,0.191 1.047,-0.805 1.923,0c1.276,1.172 -0.466,2.375 -1.739,1.677l-0.002,-0.004Z" style="fill:#aa5e1b;fill-rule:nonzero;"/></g></g></svg>