<?xml version="1.0" encoding="UTF-8" standalone="no"?><!DOCTYPE svg PUBLIC "-//W3C//DTD SVG 1.1//EN" "http://www.w3.org/Graphics/SVG/1.1/DTD/svg11.dtd"><svg width="100%" height="100%" viewBox="0 0 92 117" version="1.1" xmlns="http://www.w3.org/2000/svg" xmlns:xlink="http://www.w3.org/1999/xlink" xml:space="preserve" xmlns:serif="http://www.serif.com/" style="fill-rule:evenodd;clip-rule:evenodd;stroke-linejoin:round;stroke-miterlimit:2;"><g><clipPath id="_clip1"><rect x="0" y="2.755" width="87.5" height="112.5"/></clipPath><g clip-path="url(#_clip1)"><path d="M32.172,23.245c-3.036,-0.284 -5.508,0.026 -8.263,1.315l4.708,3.986l1.012,4.541c-16.685,1.672 -28.407,13.868 -26.626,31.761c1.486,14.991 13.162,22.156 26.37,24.675c0.09,3.649 -1.531,7.304 -5.457,7.257c-0.647,0.628 5.579,3.49 7.641,2.3c1.185,-0.687 -1.185,-2.465 -1.275,-3.992c-0.192,-3.206 2.844,-6.273 6.04,-6.253c4.266,0.027 5.925,3.186 7.635,6.623c2.78,-10.966 17.05,-7.165 11.766,3.939l8.256,-1.976c-0.09,-1.104 -1.697,-0.549 -2.895,-1.263c-1.62,-0.972 -3.824,-4.852 -2.549,-6.656c34.927,-4.276 34.651,-52.78 -0.205,-56.481c-1.031,-5.043 2.095,-5.85 5.022,-8.467c-2.767,-1.262 -5.214,-1.613 -8.263,-1.315c7.693,10.919 -9.812,14.271 -11.125,2.611c-1.723,11.614 -18.94,8.652 -11.766,-2.611l-0.026,0.007Z" style="fill:#fff;fill-rule:nonzero;"/><path d="M40.443,115.163c-7.174,-0.992 -9.64,-4.832 -14.924,-7.899c-2.908,-1.692 -5.873,-2.294 -8.929,-4.574c-23.833,-17.774 -22.508,-75.379 7.334,-86.986c1.633,-0.635 4.727,-0.714 5.701,-1.335c0.807,-0.522 1.082,-2.393 1.896,-3.298c1.339,-1.494 4.56,-2.77 6.373,-1.619c-0.705,-5.499 6.783,-9.128 10.191,-4.753c0.999,1.282 1.313,4.058 1.857,4.468c0.282,0.211 1.614,-0.377 2.568,-0.099c3.984,1.157 4.612,5.156 5.201,5.532c0.59,0.377 2.242,-0.013 3.241,0.258c16.339,4.468 25.057,23.022 26.549,39.243l0,14.443c-2.921,14.595 -6.252,28.032 -19.517,35.984c-3.83,2.3 -7.782,4.858 -11.619,7.04c-2.857,1.626 -5.989,2.234 -8.922,3.589c-2.223,-0.211 -4.843,0.298 -6.995,0l-0.006,0.007Zm6.36,-102.433c2.389,-4.574 -1.729,-10.827 -5.739,-6.246c-2.754,3.146 0.653,6.061 0,6.907c-2.998,-2.75 -7.385,-3.08 -8.897,1.309c3.638,-0.198 8.064,1.838 10.178,4.924c0.833,1.216 0.711,3.179 1.896,3.616c-0.193,-5.797 6.02,-8.401 10.812,-8.533c-1.025,-4.528 -5.098,-3.682 -8.263,-1.97l0.013,-0.007Zm-10.184,12.479c-2.107,-1.183 -4.074,0.476 -4.336,2.862c8.391,8.97 14.187,-7.258 3.427,-10.774c-16.32,-5.341 -30.655,15.441 -32.141,30.234l8.051,-9.736c4.624,-3.285 9.941,-5.638 15.468,-6.683c-1.563,-5.427 -6.399,-3.503 -10.171,-1.97c2.799,-5.889 10.018,-8.89 16.179,-7.833c1.954,0.337 3.856,1.646 3.529,3.9l-0.006,0Zm47.058,21.667c-1.825,-14.799 -14.02,-32.448 -30.142,-30.141c-9.083,1.296 -10.12,13.749 -2.505,14.185c3.01,0.172 5.342,-3.391 3.248,-5.559c-1.095,-1.137 -2.754,0.35 -3.645,-1.137c3.619,-5.096 11.497,-3.107 15.846,0.04c0.769,0.555 4.483,4.085 3.85,4.885c-3.722,-1.798 -8.564,-3.06 -10.165,1.963c6.604,1.17 13.97,4.237 18.69,9.267c1.812,1.937 2.959,4.699 4.83,6.497l-0.007,0Zm-51.503,-23.63c-3.036,-0.284 -5.508,0.026 -8.263,1.315l4.708,3.986l1.012,4.541c-16.685,1.672 -28.407,13.868 -26.626,31.761c1.486,14.991 13.162,22.156 26.37,24.675c0.09,3.649 -1.531,7.304 -5.457,7.257c-0.647,0.628 5.579,3.49 7.641,2.3c1.185,-0.687 -1.185,-2.465 -1.275,-3.992c-0.192,-3.206 2.844,-6.273 6.04,-6.253c4.266,0.026 5.925,3.186 7.635,6.623c2.78,-10.965 17.05,-7.165 11.766,3.94l8.256,-1.976c-0.09,-1.104 -1.698,-0.549 -2.895,-1.263c-1.62,-0.972 -3.824,-4.852 -2.549,-6.656c34.927,-4.277 34.652,-52.78 -0.205,-56.481c-1.031,-5.043 2.095,-5.85 5.022,-8.467c-2.767,-1.262 -5.214,-1.613 -8.263,-1.315c7.693,10.92 -9.812,14.271 -11.125,2.611c-1.723,11.614 -18.94,8.652 -11.766,-2.611l-0.026,0.007Zm41.115,74.612c5.63,-5.817 9.94,-15.95 10.715,-24.073c-3.145,6.855 -7.725,11.587 -14.514,14.568c-1.384,0.608 -9.288,2.869 -9.32,3.49c1.249,3.272 4.048,3.562 7.168,2.816c1.505,-0.364 2.101,-1.897 3.625,-1.825c-2.978,6.332 -16.403,12.902 -20.349,4.594c3.58,0.152 5.732,-1.54 3.657,-5.103c-10.062,-4.111 -11.273,9.802 -2.568,12.836c7.373,2.571 16.365,-1.93 21.579,-7.317l0.007,0.013Zm-46.194,-6.987c-6.777,-0.667 -13.111,-3.88 -18.062,-8.606l-5.464,-7.806c1.428,13.735 12.4,30.994 27.042,31.516c6.61,0.238 14.796,-6.147 9.742,-12.718c-3.171,-4.118 -10.062,-0.694 -7.225,2.835c1.358,1.686 4.029,0.925 3.491,2.32c-4.099,5.46 -12.624,2.261 -16.858,-1.619c-0.583,-0.529 -3.497,-3.265 -2.837,-3.953c2.908,2.757 10.562,3.635 10.171,-1.963l0,-0.007Zm30.514,17.073c-5.938,0.509 -12.829,-2.551 -13.668,-9.208c-1.883,6.802 -6.982,9.67 -13.675,9.208c6.162,5.671 14.866,5.955 22.424,3.12c1.525,-0.575 3.927,-1.758 4.919,-3.12Z" style="fill:#ab735b;fill-rule:nonzero;"/><path d="M27.093,90.872c0.391,5.605 -7.263,4.726 -10.171,1.963c-0.66,0.688 2.261,3.424 2.837,3.953c4.24,3.88 12.765,7.079 16.858,1.62c0.538,-1.388 -2.133,-0.635 -3.491,-2.32c-2.837,-3.523 4.054,-6.953 7.225,-2.835c5.053,6.564 -3.132,12.955 -9.742,12.718c-14.648,-0.529 -25.614,-17.781 -27.042,-31.516l5.464,7.806c4.951,4.733 11.286,7.938 18.062,8.606l0,0.007Z" style="fill:#ab735b;fill-rule:nonzero;"/><path d="M73.287,97.858c-5.214,5.387 -14.206,9.882 -21.579,7.317c-8.705,-3.034 -7.494,-16.948 2.568,-12.836c2.075,3.563 -0.077,5.255 -3.657,5.103c3.945,8.308 17.37,1.732 20.349,-4.594c-1.524,-0.073 -2.12,1.461 -3.625,1.825c-3.12,0.747 -5.918,0.456 -7.168,-2.816c0.032,-0.621 7.936,-2.882 9.32,-3.49c6.783,-2.981 11.369,-7.714 14.514,-14.568c-0.775,8.124 -5.085,18.257 -10.716,24.073l-0.006,-0.013Z" style="fill:#ab735b;fill-rule:nonzero;"/><path d="M83.676,46.875c-1.87,-1.798 -3.017,-4.561 -4.83,-6.498c-4.72,-5.03 -12.093,-8.104 -18.69,-9.267c1.601,-5.024 6.45,-3.754 10.165,-1.963c0.634,-0.793 -3.081,-4.323 -3.85,-4.885c-4.349,-3.153 -12.227,-5.143 -15.846,-0.04c0.897,1.487 2.55,0 3.645,1.137c2.095,2.168 -0.23,5.731 -3.247,5.559c-7.616,-0.436 -6.578,-12.889 2.504,-14.185c16.122,-2.3 28.317,15.348 30.142,30.141l0.006,0Z" style="fill:#ab735b;fill-rule:nonzero;"/><path d="M36.618,25.208c0.333,-2.254 -1.569,-3.563 -3.529,-3.9c-6.162,-1.058 -13.38,1.943 -16.179,7.833c3.773,-1.54 8.608,-3.457 10.171,1.97c-5.528,1.051 -10.844,3.397 -15.468,6.683l-8.051,9.736c1.492,-14.793 15.827,-35.574 32.147,-30.24c10.761,3.516 4.964,19.744 -3.427,10.774c0.263,-2.386 2.229,-4.045 4.336,-2.862l0,0.007Z" style="fill:#ab735b;fill-rule:nonzero;"/><path d="M46.802,12.73c3.157,-1.712 7.238,-2.558 8.263,1.97c-4.791,0.132 -11.004,2.736 -10.812,8.533c-1.185,-0.436 -1.063,-2.393 -1.896,-3.616c-2.114,-3.087 -6.539,-5.129 -10.178,-4.924c1.512,-4.389 5.899,-4.058 8.897,-1.309c0.653,-0.846 -2.754,-3.761 0,-6.907c4.01,-4.581 8.128,1.672 5.739,6.246l-0.013,0.007Z" style="fill:#ab735b;fill-rule:nonzero;"/><path d="M57.608,107.944c-0.986,1.362 -3.388,2.545 -4.919,3.12c-7.558,2.835 -16.256,2.551 -22.424,-3.12c6.687,0.469 11.785,-2.406 13.675,-9.207c0.839,6.656 7.731,9.716 13.668,9.207Z" style="fill:#ab735b;fill-rule:nonzero;"/></g></g></svg>